<?xml version="1.0" encoding="utf-8"?>
<!-- Generator: Adobe Illustrator 27.0.1, SVG Export Plug-In . SVG Version: 6.00 Build 0)  -->
<svg version="1.1" id="Layer_1" xmlns="http://www.w3.org/2000/svg" xmlns:xlink="http://www.w3.org/1999/xlink" x="0px" y="0px"
	 viewBox="0 0 467.7 141.7" style="enable-background:new 0 0 467.7 141.7;" xml:space="preserve">
<style type="text/css">
	.st0{fill:#231F20;}
</style>
<g>
	<g>
		<g>
			<path class="st0" d="M138.1,98.1h-2.9c-0.4,0-0.6-0.2-0.6-0.6v-0.4c0-0.4,0.2-0.6,0.6-0.6h7.6c0.4,0,0.6,0.2,0.6,0.6v0.4
				c0,0.4-0.2,0.6-0.6,0.6h-2.9v8.3c0,0.4-0.2,0.6-0.6,0.6h-0.7c-0.4,0-0.6-0.2-0.6-0.6V98.1z"/>
			<path class="st0" d="M144.3,97.1c0-0.4,0.2-0.6,0.6-0.6h0.6c0.4,0,0.6,0.2,0.6,0.6v3.1c0,0.4,0,0.6,0,0.6h0
				c0.4-0.7,1.3-1.5,2.6-1.5c1.7,0,2.7,0.9,2.7,2.9v4.3c0,0.4-0.2,0.6-0.6,0.6h-0.6c-0.4,0-0.6-0.2-0.6-0.6v-3.9
				c0-0.9-0.2-1.6-1.2-1.6c-1.3,0-2.2,1.1-2.2,2.5v2.9c0,0.4-0.2,0.6-0.6,0.6H145c-0.4,0-0.6-0.2-0.6-0.6V97.1z"/>
			<path class="st0" d="M156.5,99.3c2.2,0,3.4,1.5,3.4,3.6c0,0.3-0.3,0.6-0.7,0.6h-4.6c0.1,1.4,1.1,2.1,2.3,2.1
				c0.7,0,1.3-0.3,1.6-0.5c0.4-0.2,0.6-0.1,0.8,0.2l0.2,0.3c0.2,0.3,0.1,0.6-0.2,0.8c-0.5,0.3-1.4,0.8-2.6,0.8c-2.5,0-4.1-1.8-4.1-4
				C152.7,100.9,154.2,99.3,156.5,99.3z M158,102.4c0-1.1-0.7-1.7-1.5-1.7c-1,0-1.7,0.7-1.8,1.7H158z"/>
			<path class="st0" d="M165,97.1c0-0.4,0.2-0.6,0.6-0.6h0.7c0.4,0,0.6,0.2,0.6,0.6v3.9h4.9v-3.9c0-0.4,0.2-0.6,0.6-0.6h0.7
				c0.4,0,0.6,0.2,0.6,0.6v9.4c0,0.4-0.2,0.6-0.6,0.6h-0.7c-0.4,0-0.6-0.2-0.6-0.6v-3.8h-4.9v3.8c0,0.4-0.2,0.6-0.6,0.6h-0.7
				c-0.4,0-0.6-0.2-0.6-0.6V97.1z"/>
			<path class="st0" d="M179,99.3c2.2,0,3.4,1.5,3.4,3.6c0,0.3-0.3,0.6-0.7,0.6H177c0.1,1.4,1.1,2.1,2.3,2.1c0.7,0,1.3-0.3,1.6-0.5
				c0.4-0.2,0.6-0.1,0.8,0.2l0.2,0.3c0.2,0.3,0.1,0.6-0.2,0.8c-0.5,0.3-1.4,0.8-2.6,0.8c-2.5,0-4.1-1.8-4.1-4
				C175.1,100.9,176.7,99.3,179,99.3z M180.5,102.4c0-1.1-0.7-1.7-1.5-1.7c-1,0-1.7,0.7-1.8,1.7H180.5z"/>
			<path class="st0" d="M187.4,102.4h0.3v-0.2c0-1-0.6-1.3-1.4-1.3c-0.6,0-1.2,0.2-1.6,0.4c-0.4,0.2-0.7,0.1-0.8-0.3l-0.1-0.3
				c-0.2-0.3-0.1-0.6,0.2-0.8c0.5-0.3,1.4-0.6,2.5-0.6c2,0,3.2,1.1,3.2,3v4.1c0,0.4-0.2,0.6-0.6,0.6h-0.5c-0.4,0-0.6-0.2-0.6-0.6
				v-0.3c0-0.2,0-0.3,0-0.3h0c0,0-0.7,1.4-2.4,1.4c-1.4,0-2.5-0.9-2.5-2.3C183,102.8,185.7,102.4,187.4,102.4z M186,105.8
				c1.1,0,1.7-1.1,1.7-2v-0.3h-0.3c-1,0-2.6,0.1-2.6,1.3C184.9,105.3,185.3,105.8,186,105.8z"/>
			<path class="st0" d="M191.3,97.1c0-0.4,0.2-0.6,0.6-0.6h0.7c0.4,0,0.6,0.2,0.6,0.6v7.5c0,0.7,0.3,0.9,0.6,0.9
				c0.3,0,0.5,0.2,0.5,0.5v0.5c0,0.4-0.2,0.6-0.6,0.6c-1,0-2.3-0.3-2.3-2.4V97.1z"/>
			<path class="st0" d="M195.7,101.1h-0.4c-0.4,0-0.6-0.2-0.6-0.6v-0.3c0-0.4,0.2-0.6,0.6-0.6h0.4V98c0-0.4,0.2-0.6,0.6-0.6h0.6
				c0.4,0,0.6,0.2,0.6,0.6v1.6h1.1c0.4,0,0.6,0.2,0.6,0.6v0.3c0,0.4-0.2,0.6-0.6,0.6h-1.1v3c0,1.1,0.7,1.4,1.2,1.4
				c0.5,0,0.6,0.2,0.6,0.6v0.5c0,0.4-0.3,0.6-0.8,0.6c-1.4,0-3-0.7-3-2.8V101.1z"/>
			<path class="st0" d="M200.5,97.1c0-0.4,0.2-0.6,0.6-0.6h0.6c0.4,0,0.6,0.2,0.6,0.6v3.1c0,0.4,0,0.6,0,0.6h0
				c0.4-0.7,1.3-1.5,2.6-1.5c1.7,0,2.7,0.9,2.7,2.9v4.3c0,0.4-0.2,0.6-0.6,0.6h-0.6c-0.4,0-0.6-0.2-0.6-0.6v-3.9
				c0-0.9-0.2-1.6-1.2-1.6c-1.3,0-2.2,1.1-2.2,2.5v2.9c0,0.4-0.2,0.6-0.6,0.6h-0.6c-0.4,0-0.6-0.2-0.6-0.6V97.1z"/>
			<path class="st0" d="M213.2,97.1c0-0.4,0.2-0.6,0.6-0.6h3c3.3,0,5.4,1.9,5.4,5.3s-2.1,5.3-5.4,5.3h-3c-0.4,0-0.6-0.2-0.6-0.6
				V97.1z M216.7,105.4c2.2,0,3.5-1.3,3.5-3.7c0-2.4-1.4-3.6-3.5-3.6h-1.6v7.3H216.7z"/>
			<path class="st0" d="M227.4,102.4h0.3v-0.2c0-1-0.6-1.3-1.4-1.3c-0.6,0-1.2,0.2-1.6,0.4c-0.4,0.2-0.7,0.1-0.8-0.3l-0.1-0.3
				c-0.2-0.3-0.1-0.6,0.2-0.8c0.5-0.3,1.4-0.6,2.5-0.6c2,0,3.2,1.1,3.2,3v4.1c0,0.4-0.2,0.6-0.6,0.6h-0.5c-0.4,0-0.6-0.2-0.6-0.6
				v-0.3c0-0.2,0-0.3,0-0.3h0c0,0-0.7,1.4-2.4,1.4c-1.4,0-2.5-0.9-2.5-2.3C223,102.8,225.7,102.4,227.4,102.4z M226,105.8
				c1.1,0,1.7-1.1,1.7-2v-0.3h-0.3c-1,0-2.6,0.1-2.6,1.3C224.9,105.3,225.3,105.8,226,105.8z"/>
			<path class="st0" d="M231.6,101.1h-0.4c-0.4,0-0.6-0.2-0.6-0.6v-0.3c0-0.4,0.2-0.6,0.6-0.6h0.4V98c0-0.4,0.2-0.6,0.6-0.6h0.6
				c0.4,0,0.6,0.2,0.6,0.6v1.6h1.1c0.4,0,0.6,0.2,0.6,0.6v0.3c0,0.4-0.2,0.6-0.6,0.6h-1.1v3c0,1.1,0.7,1.4,1.2,1.4
				c0.5,0,0.6,0.2,0.6,0.6v0.5c0,0.4-0.3,0.6-0.8,0.6c-1.4,0-3-0.7-3-2.8V101.1z"/>
			<path class="st0" d="M240.3,102.4h0.3v-0.2c0-1-0.6-1.3-1.4-1.3c-0.6,0-1.2,0.2-1.6,0.4c-0.4,0.2-0.7,0.1-0.8-0.3l-0.1-0.3
				c-0.2-0.3-0.1-0.6,0.2-0.8c0.5-0.3,1.4-0.6,2.5-0.6c2,0,3.2,1.1,3.2,3v4.1c0,0.4-0.2,0.6-0.6,0.6h-0.5c-0.4,0-0.6-0.2-0.6-0.6
				v-0.3c0-0.2,0-0.3,0-0.3h0c0,0-0.7,1.4-2.4,1.4c-1.4,0-2.5-0.9-2.5-2.3C235.9,102.8,238.6,102.4,240.3,102.4z M238.9,105.8
				c1.1,0,1.7-1.1,1.7-2v-0.3h-0.3c-1,0-2.6,0.1-2.6,1.3C237.8,105.3,238.2,105.8,238.9,105.8z"/>
			<path class="st0" d="M248,97.1c0-0.4,0.2-0.6,0.6-0.6h2.9c1,0,1.6,0.1,2,0.3c1.1,0.4,1.8,1.5,1.8,2.9c0,1.3-0.7,2.4-1.8,2.9v0
				c0,0,0.1,0.2,0.3,0.6l1.7,3.2c0.3,0.4,0.1,0.7-0.4,0.7h-0.8c-0.3,0-0.6-0.1-0.7-0.4l-1.9-3.5h-1.9v3.3c0,0.4-0.2,0.6-0.6,0.6
				h-0.7c-0.4,0-0.6-0.2-0.6-0.6V97.1z M251.7,101.5c1,0,1.7-0.6,1.7-1.7c0-0.7-0.3-1.2-0.8-1.4c-0.3-0.1-0.6-0.2-1.2-0.2h-1.4v3.3
				H251.7z"/>
			<path class="st0" d="M260.2,99.3c2.2,0,3.4,1.5,3.4,3.6c0,0.3-0.3,0.6-0.7,0.6h-4.6c0.1,1.4,1.1,2.1,2.3,2.1
				c0.7,0,1.3-0.3,1.6-0.5c0.4-0.2,0.6-0.1,0.8,0.2l0.2,0.3c0.2,0.3,0.1,0.6-0.2,0.8c-0.5,0.3-1.4,0.8-2.6,0.8c-2.5,0-4.1-1.8-4.1-4
				C256.4,100.9,257.9,99.3,260.2,99.3z M261.7,102.4c0-1.1-0.7-1.7-1.5-1.7c-1,0-1.7,0.7-1.8,1.7H261.7z"/>
			<path class="st0" d="M264.5,105.6l0.2-0.3c0.2-0.3,0.5-0.3,0.9-0.1c0.4,0.2,0.9,0.5,1.7,0.5c0.7,0,1.1-0.3,1.1-0.8
				c0-1.2-3.8-0.8-3.8-3.4c0-1.5,1.3-2.3,2.9-2.3c1,0,1.7,0.3,2.1,0.6c0.3,0.2,0.4,0.5,0.2,0.8l-0.1,0.3c-0.2,0.4-0.5,0.4-0.8,0.2
				c-0.3-0.1-0.8-0.4-1.4-0.4c-0.7,0-1,0.3-1,0.7c0,1.3,3.8,0.8,3.8,3.4c0,1.3-1.1,2.3-2.9,2.3c-1.2,0-2.1-0.5-2.5-0.8
				C264.3,106.3,264.3,106,264.5,105.6z"/>
			<path class="st0" d="M274.8,99.3c2.2,0,3.4,1.5,3.4,3.6c0,0.3-0.3,0.6-0.7,0.6h-4.6c0.1,1.4,1.1,2.1,2.3,2.1
				c0.7,0,1.3-0.3,1.6-0.5c0.4-0.2,0.6-0.1,0.8,0.2l0.2,0.3c0.2,0.3,0.1,0.6-0.2,0.8c-0.5,0.3-1.4,0.8-2.6,0.8c-2.5,0-4.1-1.8-4.1-4
				C270.9,100.9,272.5,99.3,274.8,99.3z M276.3,102.4c0-1.1-0.7-1.7-1.5-1.7c-1,0-1.7,0.7-1.8,1.7H276.3z"/>
			<path class="st0" d="M283.2,102.4h0.3v-0.2c0-1-0.6-1.3-1.4-1.3c-0.6,0-1.2,0.2-1.6,0.4c-0.4,0.2-0.7,0.1-0.8-0.3l-0.1-0.3
				c-0.2-0.3-0.1-0.6,0.2-0.8c0.5-0.3,1.4-0.6,2.5-0.6c2,0,3.2,1.1,3.2,3v4.1c0,0.4-0.2,0.6-0.6,0.6h-0.5c-0.4,0-0.6-0.2-0.6-0.6
				v-0.3c0-0.2,0-0.3,0-0.3h0c0,0-0.7,1.4-2.4,1.4c-1.4,0-2.5-0.9-2.5-2.3C278.8,102.8,281.5,102.4,283.2,102.4z M281.8,105.8
				c1.1,0,1.7-1.1,1.7-2v-0.3h-0.3c-1,0-2.6,0.1-2.6,1.3C280.7,105.3,281.1,105.8,281.8,105.8z"/>
			<path class="st0" d="M287.1,100.1c0-0.4,0.2-0.6,0.6-0.6h0.6c0.4,0,0.6,0.2,0.6,0.6v0.7c0,0.3,0,0.5,0,0.5h0
				c0.3-0.9,1.1-1.9,2.2-1.9c0.4,0,0.6,0.2,0.6,0.6v0.6c0,0.4-0.2,0.6-0.6,0.6c-1.4,0-2.1,1.4-2.1,2.8v2.4c0,0.4-0.2,0.6-0.6,0.6
				h-0.7c-0.4,0-0.6-0.2-0.6-0.6V100.1z"/>
			<path class="st0" d="M295.9,99.3c1.2,0,2,0.4,2.5,0.8c0.3,0.2,0.3,0.5,0.1,0.9l-0.2,0.3c-0.2,0.3-0.5,0.3-0.8,0.2
				c-0.3-0.2-0.8-0.5-1.5-0.5c-1.4,0-2.3,1.1-2.3,2.4c0,1.3,0.9,2.4,2.4,2.4c0.7,0,1.3-0.3,1.7-0.6c0.4-0.2,0.7-0.2,0.9,0.2l0.1,0.3
				c0.2,0.3,0.1,0.6-0.2,0.8c-0.5,0.3-1.4,0.9-2.7,0.9c-2.5,0-4.1-1.8-4.1-4C291.8,101.1,293.4,99.3,295.9,99.3z"/>
			<path class="st0" d="M300,97.1c0-0.4,0.2-0.6,0.6-0.6h0.6c0.4,0,0.6,0.2,0.6,0.6v3.1c0,0.4,0,0.6,0,0.6h0
				c0.4-0.7,1.3-1.5,2.6-1.5c1.7,0,2.7,0.9,2.7,2.9v4.3c0,0.4-0.2,0.6-0.6,0.6h-0.6c-0.4,0-0.6-0.2-0.6-0.6v-3.9
				c0-0.9-0.2-1.6-1.2-1.6c-1.3,0-2.2,1.1-2.2,2.5v2.9c0,0.4-0.2,0.6-0.6,0.6h-0.6c-0.4,0-0.6-0.2-0.6-0.6V97.1z"/>
			<path class="st0" d="M312.7,97.1c0-0.4,0.2-0.6,0.6-0.6h0.7c0.4,0,0.6,0.2,0.6,0.6v3.9h4.9v-3.9c0-0.4,0.2-0.6,0.6-0.6h0.7
				c0.4,0,0.6,0.2,0.6,0.6v9.4c0,0.4-0.2,0.6-0.6,0.6h-0.7c-0.4,0-0.6-0.2-0.6-0.6v-3.8h-4.9v3.8c0,0.4-0.2,0.6-0.6,0.6h-0.7
				c-0.4,0-0.6-0.2-0.6-0.6V97.1z"/>
			<path class="st0" d="M323.2,100.1c0-0.4,0.2-0.6,0.6-0.6h0.6c0.4,0,0.6,0.2,0.6,0.6v3.9c0,0.9,0.2,1.6,1.2,1.6
				c1.4,0,2.1-1.2,2.1-2.6v-2.9c0-0.4,0.2-0.6,0.6-0.6h0.6c0.4,0,0.6,0.2,0.6,0.6v6.4c0,0.4-0.2,0.6-0.6,0.6h-0.6
				c-0.4,0-0.6-0.2-0.6-0.6V106c0-0.2,0-0.3,0-0.3h0c-0.4,0.8-1.3,1.6-2.6,1.6c-1.6,0-2.6-0.8-2.6-2.9V100.1z"/>
			<path class="st0" d="M332,97.1c0-0.4,0.2-0.6,0.6-0.6h0.6c0.4,0,0.6,0.2,0.6,0.6v2.8c0,0.4,0,0.6,0,0.6h0c0,0,0.7-1.2,2.3-1.2
				c2,0,3.4,1.6,3.4,4c0,2.4-1.5,4-3.5,4c-1.7,0-2.3-1.3-2.3-1.3h0c0,0,0,0.1,0,0.3v0.2c0,0.3-0.2,0.5-0.6,0.5h-0.5
				c-0.4,0-0.6-0.2-0.6-0.6V97.1z M335.7,105.7c1.1,0,1.9-0.9,1.9-2.4c0-1.4-0.8-2.4-1.9-2.4c-1,0-1.9,0.7-1.9,2.4
				C333.8,104.5,334.5,105.7,335.7,105.7z"/>
			<path class="st0" d="M344.8,101.1h-0.4c-0.4,0-0.6-0.2-0.6-0.6v-0.3c0-0.4,0.2-0.6,0.6-0.6h0.4v-0.4c0-2.4,2.1-2.8,2.9-2.8h0.2
				c0.4,0,0.6,0.2,0.6,0.6v0.4c0,0.4-0.2,0.6-0.6,0.6c-0.5,0-1.2,0.1-1.2,1.2v0.3h1c0.4,0,0.6,0.2,0.6,0.6v0.3
				c0,0.4-0.2,0.6-0.6,0.6h-1v5.4c0,0.4-0.2,0.6-0.6,0.6h-0.7c-0.4,0-0.6-0.2-0.6-0.6V101.1z"/>
			<path class="st0" d="M352.9,99.3c2.3,0,4.2,1.7,4.2,4c0,2.3-1.9,4-4.2,4s-4.2-1.6-4.2-4C348.7,100.9,350.6,99.3,352.9,99.3z
				 M352.9,105.7c1.2,0,2.3-1,2.3-2.4c0-1.4-1-2.4-2.3-2.4c-1.2,0-2.3,1-2.3,2.4C350.6,104.7,351.6,105.7,352.9,105.7z"/>
			<path class="st0" d="M358.3,100.1c0-0.4,0.2-0.6,0.6-0.6h0.6c0.4,0,0.6,0.2,0.6,0.6v0.7c0,0.3,0,0.5,0,0.5h0
				c0.3-0.9,1.1-1.9,2.2-1.9c0.4,0,0.6,0.2,0.6,0.6v0.6c0,0.4-0.2,0.6-0.6,0.6c-1.4,0-2.1,1.4-2.1,2.8v2.4c0,0.4-0.2,0.6-0.6,0.6
				h-0.7c-0.4,0-0.6-0.2-0.6-0.6V100.1z"/>
			<path class="st0" d="M368,97.1c0-0.4,0.3-0.6,0.6-0.6h0.9c0.4,0,0.6,0.2,0.7,0.5l1.9,4.7c0.2,0.6,0.5,1.6,0.5,1.6h0
				c0,0,0.3-0.9,0.5-1.6l1.9-4.7c0.1-0.3,0.3-0.5,0.7-0.5h0.9c0.4,0,0.6,0.2,0.6,0.6l0.8,9.4c0,0.4-0.2,0.6-0.6,0.6H377
				c-0.4,0-0.6-0.2-0.6-0.6l-0.4-5.3c0-0.7,0-1.6,0-1.6h0c0,0-0.3,1-0.6,1.6l-1.5,3.6c-0.1,0.3-0.3,0.5-0.7,0.5h-0.6
				c-0.4,0-0.6-0.2-0.7-0.5l-1.5-3.6c-0.2-0.6-0.6-1.7-0.6-1.7h0c0,0,0,1,0,1.7l-0.4,5.3c0,0.4-0.2,0.6-0.6,0.6h-0.7
				c-0.4,0-0.6-0.2-0.6-0.6L368,97.1z"/>
			<path class="st0" d="M383.3,99.3c2.2,0,3.4,1.5,3.4,3.6c0,0.3-0.3,0.6-0.7,0.6h-4.6c0.1,1.4,1.1,2.1,2.3,2.1
				c0.7,0,1.3-0.3,1.6-0.5c0.4-0.2,0.6-0.1,0.8,0.2l0.2,0.3c0.2,0.3,0.1,0.6-0.2,0.8c-0.5,0.3-1.4,0.8-2.6,0.8c-2.5,0-4.1-1.8-4.1-4
				C379.4,100.9,381,99.3,383.3,99.3z M384.8,102.4c0-1.1-0.7-1.7-1.5-1.7c-1,0-1.7,0.7-1.8,1.7H384.8z"/>
			<path class="st0" d="M387.9,100.1c0-0.4,0.2-0.6,0.6-0.6h0.6c0.4,0,0.6,0.2,0.6,0.6v0.5c0,0.2,0,0.3,0,0.3h0
				c0.3-0.6,1.2-1.6,2.7-1.6c1.7,0,2.7,0.9,2.7,2.9v4.3c0,0.4-0.2,0.6-0.6,0.6h-0.6c-0.4,0-0.6-0.2-0.6-0.6v-3.9
				c0-0.9-0.2-1.6-1.2-1.6c-1.3,0-2.2,1.1-2.2,2.5v2.9c0,0.4-0.2,0.6-0.6,0.6h-0.7c-0.4,0-0.6-0.2-0.6-0.6V100.1z"/>
			<path class="st0" d="M397,101.1h-0.4c-0.4,0-0.6-0.2-0.6-0.6v-0.3c0-0.4,0.2-0.6,0.6-0.6h0.4V98c0-0.4,0.2-0.6,0.6-0.6h0.6
				c0.4,0,0.6,0.2,0.6,0.6v1.6h1.1c0.4,0,0.6,0.2,0.6,0.6v0.3c0,0.4-0.2,0.6-0.6,0.6h-1.1v3c0,1.1,0.7,1.4,1.2,1.4
				c0.5,0,0.6,0.2,0.6,0.6v0.5c0,0.4-0.3,0.6-0.8,0.6c-1.4,0-3-0.7-3-2.8V101.1z"/>
			<path class="st0" d="M405.7,102.4h0.3v-0.2c0-1-0.6-1.3-1.4-1.3c-0.6,0-1.2,0.2-1.6,0.4c-0.4,0.2-0.7,0.1-0.8-0.3l-0.1-0.3
				c-0.2-0.3-0.1-0.6,0.2-0.8c0.5-0.3,1.4-0.6,2.5-0.6c2,0,3.2,1.1,3.2,3v4.1c0,0.4-0.2,0.6-0.6,0.6h-0.5c-0.4,0-0.6-0.2-0.6-0.6
				v-0.3c0-0.2,0-0.3,0-0.3h0c0,0-0.7,1.4-2.4,1.4c-1.4,0-2.5-0.9-2.5-2.3C401.3,102.8,404,102.4,405.7,102.4z M404.3,105.8
				c1.1,0,1.7-1.1,1.7-2v-0.3h-0.3c-1,0-2.6,0.1-2.6,1.3C403.2,105.3,403.6,105.8,404.3,105.8z"/>
			<path class="st0" d="M409.6,97.1c0-0.4,0.2-0.6,0.6-0.6h0.7c0.4,0,0.6,0.2,0.6,0.6v7.5c0,0.7,0.3,0.9,0.6,0.9
				c0.3,0,0.5,0.2,0.5,0.5v0.5c0,0.4-0.2,0.6-0.6,0.6c-1,0-2.3-0.3-2.3-2.4V97.1z"/>
			<path class="st0" d="M417.5,97.1c0-0.4,0.2-0.6,0.6-0.6h0.7c0.4,0,0.6,0.2,0.6,0.6v3.9h4.9v-3.9c0-0.4,0.2-0.6,0.6-0.6h0.7
				c0.4,0,0.6,0.2,0.6,0.6v9.4c0,0.4-0.2,0.6-0.6,0.6h-0.7c-0.4,0-0.6-0.2-0.6-0.6v-3.8h-4.9v3.8c0,0.4-0.2,0.6-0.6,0.6h-0.7
				c-0.4,0-0.6-0.2-0.6-0.6V97.1z"/>
			<path class="st0" d="M431.4,99.3c2.2,0,3.4,1.5,3.4,3.6c0,0.3-0.3,0.6-0.7,0.6h-4.6c0.1,1.4,1.1,2.1,2.3,2.1
				c0.7,0,1.3-0.3,1.6-0.5c0.4-0.2,0.6-0.1,0.8,0.2l0.2,0.3c0.2,0.3,0.1,0.6-0.2,0.8c-0.5,0.3-1.4,0.8-2.6,0.8c-2.5,0-4.1-1.8-4.1-4
				C427.6,100.9,429.1,99.3,431.4,99.3z M432.9,102.4c0-1.1-0.7-1.7-1.5-1.7c-1,0-1.7,0.7-1.8,1.7H432.9z"/>
			<path class="st0" d="M439.9,102.4h0.3v-0.2c0-1-0.6-1.3-1.4-1.3c-0.6,0-1.2,0.2-1.6,0.4c-0.4,0.2-0.7,0.1-0.8-0.3l-0.1-0.3
				c-0.2-0.3-0.1-0.6,0.2-0.8c0.5-0.3,1.4-0.6,2.5-0.6c2,0,3.2,1.1,3.2,3v4.1c0,0.4-0.2,0.6-0.6,0.6H441c-0.4,0-0.6-0.2-0.6-0.6
				v-0.3c0-0.2,0-0.3,0-0.3h0c0,0-0.7,1.4-2.4,1.4c-1.4,0-2.5-0.9-2.5-2.3C435.5,102.8,438.2,102.4,439.9,102.4z M438.5,105.8
				c1.1,0,1.7-1.1,1.7-2v-0.3h-0.3c-1,0-2.6,0.1-2.6,1.3C437.3,105.3,437.7,105.8,438.5,105.8z"/>
			<path class="st0" d="M443.7,97.1c0-0.4,0.2-0.6,0.6-0.6h0.7c0.4,0,0.6,0.2,0.6,0.6v7.5c0,0.7,0.3,0.9,0.6,0.9
				c0.3,0,0.5,0.2,0.5,0.5v0.5c0,0.4-0.2,0.6-0.6,0.6c-1,0-2.3-0.3-2.3-2.4V97.1z"/>
			<path class="st0" d="M448.1,101.1h-0.4c-0.4,0-0.6-0.2-0.6-0.6v-0.3c0-0.4,0.2-0.6,0.6-0.6h0.4V98c0-0.4,0.2-0.6,0.6-0.6h0.6
				c0.4,0,0.6,0.2,0.6,0.6v1.6h1.1c0.4,0,0.6,0.2,0.6,0.6v0.3c0,0.4-0.2,0.6-0.6,0.6H450v3c0,1.1,0.7,1.4,1.2,1.4
				c0.5,0,0.6,0.2,0.6,0.6v0.5c0,0.4-0.3,0.6-0.8,0.6c-1.4,0-3-0.7-3-2.8V101.1z"/>
			<path class="st0" d="M453,97.1c0-0.4,0.2-0.6,0.6-0.6h0.6c0.4,0,0.6,0.2,0.6,0.6v3.1c0,0.4,0,0.6,0,0.6h0
				c0.4-0.7,1.3-1.5,2.6-1.5c1.7,0,2.7,0.9,2.7,2.9v4.3c0,0.4-0.2,0.6-0.6,0.6h-0.6c-0.4,0-0.6-0.2-0.6-0.6v-3.9
				c0-0.9-0.2-1.6-1.2-1.6c-1.3,0-2.2,1.1-2.2,2.5v2.9c0,0.4-0.2,0.6-0.6,0.6h-0.6c-0.4,0-0.6-0.2-0.6-0.6V97.1z"/>
		</g>
		<g>
			<g>
				<path class="st0" d="M305.8,44.2c0.1-0.7,0.5-1.1,1.1-1.1h0.8c0.7,0,1.1,0.3,1.3,0.9l13.1,28.3c1.1,2.3,2.3,5.2,2.3,5.2h0.1
					c0,0,1.2-3,2.3-5.2L339.9,44c0.3-0.6,0.7-0.9,1.3-0.9h0.8c0.7,0,1.1,0.4,1.1,1.1l3.6,44.1c0,0.8-0.3,1.2-1.1,1.2H345
					c-0.7,0-1.1-0.4-1.1-1.1l-2.8-34.3c-0.2-2.3-0.2-6.2-0.2-6.2h-0.1c0,0-1.3,3.9-2.4,6.2l-12.1,25.6c-0.3,0.6-0.7,0.9-1.3,0.9
					h-1.1c-0.7,0-1.1-0.3-1.3-0.9l-12-25.6c-1-2.2-2.5-6.3-2.5-6.3H308c0,0,0,4-0.2,6.3L305,88.4c-0.1,0.7-0.5,1.1-1.1,1.1h-0.6
					c-0.8,0-1.1-0.4-1.1-1.2L305.8,44.2z"/>
				<path class="st0" d="M358.9,44.2c0-0.7,0.4-1.1,1.1-1.1h0.6c0.7,0,1.1,0.4,1.1,1.1v44.1c0,0.7-0.4,1.1-1.1,1.1H360
					c-0.7,0-1.1-0.4-1.1-1.1V44.2z"/>
				<path class="st0" d="M375.6,44.2c0-0.7,0.4-1.1,1.1-1.1h0.7c0.6,0,1,0.2,1.4,0.7l25.9,35.6c1.5,2.1,3.8,5.8,3.8,5.8h0.1
					c0,0-0.3-3.5-0.3-5.8V44.2c0-0.7,0.4-1.1,1.1-1.1h0.6c0.7,0,1.1,0.4,1.1,1.1v44.1c0,0.7-0.4,1.1-1.1,1.1h-0.7
					c-0.6,0-1-0.2-1.4-0.7l-25.9-35.6c-1.5-2.1-3.8-5.8-3.8-5.8h-0.1c0,0,0.3,3.5,0.3,5.8v35.2c0,0.7-0.4,1.1-1.1,1.1h-0.6
					c-0.7,0-1.1-0.4-1.1-1.1V44.2z"/>
				<path class="st0" d="M425,44.2c0-0.7,0.4-1.1,1.1-1.1h13.4c13.8,0,23.1,8.5,23.1,23.2c0,14.8-9.3,23.2-23.1,23.2h-13.4
					c-0.7,0-1.1-0.4-1.1-1.1V44.2z M439.1,86.8c12.3,0,20.6-7.2,20.6-20.5c0-13.2-8.3-20.5-20.6-20.5h-11.3v41.1H439.1z"/>
			</g>
			<g>
				<g>
					<g>
						<path d="M135.2,45.3c0-1.8,0.9-2.8,2.7-2.8h13.3c14.5,0,24,8.6,24,23.4s-9.5,23.6-24,23.6H138c-1.8,0-2.7-0.9-2.7-2.8V45.3z
							 M150.8,82.2c9.5,0,15.6-5.6,15.6-16.2c0-10.5-6.2-16.1-15.6-16.1h-7.1v32.3H150.8z"/>
						<path d="M193.3,44.8c0.5-1.5,1.5-2.3,3.1-2.3h4.2c1.6,0,2.6,0.7,3.1,2.3l14.7,41.6c0.7,1.9-0.2,3.2-2.3,3.2h-3
							c-1.6,0-2.6-0.7-3.1-2.3l-3.3-9.8h-16.5l-3.2,9.7c-0.5,1.6-1.5,2.3-3.1,2.3h-3c-2.1,0-2.9-1.3-2.3-3.2L193.3,44.8z
							 M204.6,70.5L200.5,58c-0.8-2.6-1.9-7.3-1.9-7.3h-0.1c0,0-1.1,4.6-1.9,7.3l-4.2,12.6H204.6z"/>
						<path d="M231.1,49.9h-12.6c-1.9,0-2.8-0.9-2.8-2.7v-1.9c0-1.8,0.9-2.8,2.8-2.8h33.8c1.8,0,2.7,1,2.7,2.8v1.9
							c0,1.8-0.9,2.7-2.7,2.7h-12.6v36.9c0,1.9-0.9,2.8-2.8,2.8h-3c-1.8,0-2.7-0.9-2.7-2.8V49.9z"/>
						<path d="M266.9,44.8c0.5-1.5,1.5-2.3,3.1-2.3h4.2c1.6,0,2.6,0.7,3.1,2.3l14.7,41.6c0.7,1.9-0.2,3.2-2.3,3.2h-3
							c-1.6,0-2.6-0.7-3.1-2.3l-3.3-9.8h-16.5l-3.2,9.7c-0.5,1.6-1.5,2.3-3.1,2.3h-3c-2.1,0-2.9-1.3-2.3-3.2L266.9,44.8z
							 M278.2,70.5L274,58c-0.8-2.6-1.9-7.3-1.9-7.3h-0.1c0,0-1.1,4.6-1.9,7.3L266,70.5H278.2z"/>
					</g>
				</g>
				<g>
					<g>
						<path class="st0" d="M135.2,45.3c0-1.8,0.9-2.8,2.7-2.8h13.3c14.5,0,24,8.6,24,23.4s-9.5,23.6-24,23.6H138
							c-1.8,0-2.7-0.9-2.7-2.8V45.3z M150.8,82.2c9.5,0,15.6-5.6,15.6-16.2c0-10.5-6.2-16.1-15.6-16.1h-7.1v32.3H150.8z"/>
						<path class="st0" d="M193.3,44.8c0.5-1.5,1.5-2.3,3.1-2.3h4.2c1.6,0,2.6,0.7,3.1,2.3l14.7,41.6c0.7,1.9-0.2,3.2-2.3,3.2h-3
							c-1.6,0-2.6-0.7-3.1-2.3l-3.3-9.8h-16.5l-3.2,9.7c-0.5,1.6-1.5,2.3-3.1,2.3h-3c-2.1,0-2.9-1.3-2.3-3.2L193.3,44.8z
							 M204.6,70.5L200.5,58c-0.8-2.6-1.9-7.3-1.9-7.3h-0.1c0,0-1.1,4.6-1.9,7.3l-4.2,12.6H204.6z"/>
						<path class="st0" d="M231.1,49.9h-12.6c-1.9,0-2.8-0.9-2.8-2.7v-1.9c0-1.8,0.9-2.8,2.8-2.8h33.8c1.8,0,2.7,1,2.7,2.8v1.9
							c0,1.8-0.9,2.7-2.7,2.7h-12.6v36.9c0,1.9-0.9,2.8-2.8,2.8h-3c-1.8,0-2.7-0.9-2.7-2.8V49.9z"/>
						<path class="st0" d="M266.9,44.8c0.5-1.5,1.5-2.3,3.1-2.3h4.2c1.6,0,2.6,0.7,3.1,2.3l14.7,41.6c0.7,1.9-0.2,3.2-2.3,3.2h-3
							c-1.6,0-2.6-0.7-3.1-2.3l-3.3-9.8h-16.5l-3.2,9.7c-0.5,1.6-1.5,2.3-3.1,2.3h-3c-2.1,0-2.9-1.3-2.3-3.2L266.9,44.8z
							 M278.2,70.5L274,58c-0.8-2.6-1.9-7.3-1.9-7.3h-0.1c0,0-1.1,4.6-1.9,7.3L266,70.5H278.2z"/>
					</g>
				</g>
			</g>
		</g>
	</g>
	<g>
		<path class="st0" d="M121,84c-2.6-3.4-7.4-9.7-9.7-13.1c-0.7-1-1.6-3.2-1.6-4.6c0.1-2.2,0.7-4.2,2-5.8c1.2-1.6,1.9-4.5,1.5-6.5
			c-3.6-18-9.8-30.7-18.7-38.8c-8.6-7.8-20-11.5-35-11.5C29.5,3.7,5.1,28.1,5,58.1c0,14.5,5.5,28.2,15.7,38.5
			c4.7,4.7,6.7,11.3,5.5,17.7l-3.6,19.1c-0.2,1.2,0.1,2.3,0.8,3.2c0.7,0.9,1.8,1.4,3,1.4h46.3c1.8,0,3.3-1.2,3.8-2.9l0.7-2.6
			c1.5-5.2,6.6-8.4,11.9-7.5l12.8,1.3c1.5,0.2,3.5,0.2,5.6-0.9c1.1-0.6,1.9-1.5,2.6-2.7c1.2-2.4,1.3-4.3,1.2-6.7l0-0.4
			c-0.1-1.7-0.3-3.3,0.6-4.7l0.4-0.6c0.4-0.6,0.8-1,1.2-1.4c0.9-0.7,1.4-1.7,1.4-2.9c0-0.9-0.3-1.8-1-2.4c1.2-0.6,2-1.9,2-3.2
			c0-0.7-0.2-1.4-0.6-2c-1-1.4-1.5-3.2-1.7-5.2l0-0.3l6.6-4.3c0.7-0.5,1.3-1.3,1.4-2.1C121.8,85.6,121.6,84.7,121,84z M44.6,93.5
			c-0.1,0-0.3,0-0.4,0l0-21l-6.5-3.7l0-4.8c0.4,0,0.8,0.1,1.2,0.1v3.8l6.5,3.9l0,21.8C45.2,93.5,44.9,93.5,44.6,93.5z M52.5,92.1
			l0-20.2l9.4-4.1v-9.6c0.4,0,0.8-0.1,1.3-0.1v10.6l-9.4,4.1l0,18.8C53.4,91.8,53,92,52.5,92.1z M91.5,53.6
			c-13.2,4.7-19,14.3-24.1,22.8c-3.2,5.3-6.2,10.3-10.6,13.4l0-15.2l9.4-4.1V57.4c10.4-3.8,17.1-18.9,17.1-18.9
			C53.7,32,47.8,49.4,50.5,53.2l0.7,0.8l0.9,0.8c2.4,1.8,4.7,2.8,6.9,3.2v7.9L49.7,70l0,23c-0.4,0.1-0.8,0.2-1.2,0.2l0-23.2
			l-6.5-3.9v-2.5c2-0.5,4.1-1.5,6.3-3.3l1-0.8l0-1c-0.1-4.1-3.3-19.8-30.5-12.5c0,0,6.6,13.7,16.2,17.1l0,7.2l6.5,3.7l0,19.2
			c-24.5-2-28.2-25.6-28.2-39.9c0-9.6,5.3-20.4,14.3-28.9C36.6,15.7,48,10.7,59,10.7c0.6,0,1.2,0,1.8,0c19.9,1,36.9,16.4,38.9,29.5
			C100.6,46.7,97.7,51.4,91.5,53.6z"/>
		<path class="st0" d="M45.5,46.2l0.9,0.5l0.7-0.4c3-1.6,13.5-9.7-1.2-28.9C46,17.4,30.2,38,45.5,46.2z"/>
		<path class="st0" d="M55.5,35.6l0.3,0.6l0.8,0.2c13.9,3.4,14-17.5,14-17.5C51.7,22.5,54.4,33,55.5,35.6z"/>
		<path class="st0" d="M27,31.4c0,0,0.1,13.6,9.1,11.4l0.5-0.1l0.2-0.4C37.6,40.5,39.3,33.7,27,31.4z"/>
		<path class="st0" d="M68.3,34.9l0.1,0.3l0.2,0.1c1,0.5,5.1,2,7.2-5.5C75.8,29.9,67.4,29.2,68.3,34.9z"/>
	</g>
</g>
</svg>
